<svg xmlns="http://www.w3.org/2000/svg" viewBox="0 0 96 96">
<defs><linearGradient id="g" x1="0" y1="0" x2="1" y2="1"><stop stop-color="#604811"/><stop offset="1" stop-color="#07182f"/></linearGradient></defs>
<rect width="96" height="96" rx="48" fill="url(#g)"/>
<circle cx="48" cy="39" r="21" fill="#edc2a3"/>
<path d="M25 40c1-20 11-28 24-28 15 0 24 11 23 29-5-5-9-9-12-15-7 7-19 11-35 14z" fill="#2e221c"/>
<circle cx="40" cy="39" r="2" fill="#1b2533"/><circle cx="56" cy="39" r="2" fill="#1b2533"/>
<path d="M42 49c4 3 8 3 12 0" fill="none" stroke="#9d5f58" stroke-width="2.2" stroke-linecap="round"/>
<path d="M18 96c2-22 14-34 30-34s29 12 31 34" fill="#ffd878" opacity=".95"/>
<circle cx="48" cy="48" r="45" fill="none" stroke="#ffd878" stroke-opacity=".4" stroke-width="2"/>
</svg>